<?xml version="1.0" encoding="UTF-8" standalone="no"?>
<!-- Created with Inkscape (http://www.inkscape.org/) -->

<svg
   xmlns:dc="http://purl.org/dc/elements/1.1/"
   xmlns:cc="http://creativecommons.org/ns#"
   xmlns:rdf="http://www.w3.org/1999/02/22-rdf-syntax-ns#"
   xmlns:svg="http://www.w3.org/2000/svg"
   xmlns="http://www.w3.org/2000/svg"
   xmlns:sodipodi="http://sodipodi.sourceforge.net/DTD/sodipodi-0.dtd"
   xmlns:inkscape="http://www.inkscape.org/namespaces/inkscape"
   width="203.2mm"
   height="152.39999mm"
   viewBox="0 0 719.99999 539.99998"
   id="svg2"
   version="1.1"
   inkscape:version="0.91 r13725"
   sodipodi:docname="pca_currency.svg">
  <defs
     id="defs4">
    <clipPath
       id="clipPath4154"
       clipPathUnits="userSpaceOnUse">
      <path
         inkscape:connector-curvature="0"
         id="path4156"
         d="m 32.231875,29.56 530.808125,0 0,372.78 -530.808125,0 0,-372.78 z" />
    </clipPath>
    <clipPath
       id="clipPath4164"
       clipPathUnits="userSpaceOnUse">
      <path
         inkscape:connector-curvature="0"
         id="path4166"
         d="m 32.231875,29.56 530.808125,0 0,372.78 -530.808125,0 0,-372.78 z" />
    </clipPath>
    <clipPath
       id="clipPath4174"
       clipPathUnits="userSpaceOnUse">
      <path
         inkscape:connector-curvature="0"
         id="path4176"
         d="m 32.231875,29.56 530.808125,0 0,372.78 -530.808125,0 0,-372.78 z" />
    </clipPath>
    <clipPath
       id="clipPath4184"
       clipPathUnits="userSpaceOnUse">
      <path
         inkscape:connector-curvature="0"
         id="path4186"
         d="m 32.231875,29.56 530.808125,0 0,372.78 -530.808125,0 0,-372.78 z" />
    </clipPath>
    <clipPath
       id="clipPath4194"
       clipPathUnits="userSpaceOnUse">
      <path
         inkscape:connector-curvature="0"
         id="path4196"
         d="m 32.231875,29.56 530.808125,0 0,372.78 -530.808125,0 0,-372.78 z" />
    </clipPath>
    <clipPath
       id="clipPath4204"
       clipPathUnits="userSpaceOnUse">
      <path
         inkscape:connector-curvature="0"
         id="path4206"
         d="m 32.231875,29.56 530.808125,0 0,372.78 -530.808125,0 0,-372.78 z" />
    </clipPath>
    <clipPath
       id="clipPath4214"
       clipPathUnits="userSpaceOnUse">
      <path
         inkscape:connector-curvature="0"
         id="path4216"
         d="m 32.231875,29.56 530.808125,0 0,372.78 -530.808125,0 0,-372.78 z" />
    </clipPath>
    <clipPath
       id="clipPath4224"
       clipPathUnits="userSpaceOnUse">
      <path
         inkscape:connector-curvature="0"
         id="path4226"
         d="m 32.231875,29.56 530.808125,0 0,372.78 -530.808125,0 0,-372.78 z" />
    </clipPath>
    <clipPath
       id="clipPath4234"
       clipPathUnits="userSpaceOnUse">
      <path
         inkscape:connector-curvature="0"
         id="path4236"
         d="m 32.231875,29.56 530.808125,0 0,372.78 -530.808125,0 0,-372.78 z" />
    </clipPath>
    <clipPath
       id="clipPath4244"
       clipPathUnits="userSpaceOnUse">
      <path
         inkscape:connector-curvature="0"
         id="path4246"
         d="m 32.231875,29.56 530.808125,0 0,372.78 -530.808125,0 0,-372.78 z" />
    </clipPath>
    <clipPath
       id="clipPath4254"
       clipPathUnits="userSpaceOnUse">
      <path
         inkscape:connector-curvature="0"
         id="path4256"
         d="m 32.231875,29.56 530.808125,0 0,372.78 -530.808125,0 0,-372.78 z" />
    </clipPath>
    <clipPath
       id="clipPath4264"
       clipPathUnits="userSpaceOnUse">
      <path
         inkscape:connector-curvature="0"
         id="path4266"
         d="m 32.231875,29.56 530.808125,0 0,372.78 -530.808125,0 0,-372.78 z" />
    </clipPath>
    <clipPath
       id="clipPath4274"
       clipPathUnits="userSpaceOnUse">
      <path
         inkscape:connector-curvature="0"
         id="path4276"
         d="m 32.231875,29.56 530.808125,0 0,372.78 -530.808125,0 0,-372.78 z" />
    </clipPath>
    <clipPath
       id="clipPath4284"
       clipPathUnits="userSpaceOnUse">
      <path
         inkscape:connector-curvature="0"
         id="path4286"
         d="m 32.231875,29.56 530.808125,0 0,372.78 -530.808125,0 0,-372.78 z" />
    </clipPath>
    <clipPath
       id="clipPath4294"
       clipPathUnits="userSpaceOnUse">
      <path
         inkscape:connector-curvature="0"
         id="path4296"
         d="m 32.231875,29.56 530.808125,0 0,372.78 -530.808125,0 0,-372.78 z" />
    </clipPath>
    <clipPath
       id="clipPath4304"
       clipPathUnits="userSpaceOnUse">
      <path
         inkscape:connector-curvature="0"
         id="path4306"
         d="m 32.231875,29.56 530.808125,0 0,372.78 -530.808125,0 0,-372.78 z" />
    </clipPath>
    <clipPath
       id="clipPath4314"
       clipPathUnits="userSpaceOnUse">
      <path
         inkscape:connector-curvature="0"
         id="path4316"
         d="m 32.231875,29.56 530.808125,0 0,372.78 -530.808125,0 0,-372.78 z" />
    </clipPath>
    <clipPath
       id="clipPath4324"
       clipPathUnits="userSpaceOnUse">
      <path
         inkscape:connector-curvature="0"
         id="path4326"
         d="m 32.231875,29.56 530.808125,0 0,372.78 -530.808125,0 0,-372.78 z" />
    </clipPath>
    <clipPath
       id="clipPath4334"
       clipPathUnits="userSpaceOnUse">
      <path
         inkscape:connector-curvature="0"
         id="path4336"
         d="m 32.231875,29.56 530.808125,0 0,372.78 -530.808125,0 0,-372.78 z" />
    </clipPath>
    <clipPath
       id="clipPath4344"
       clipPathUnits="userSpaceOnUse">
      <path
         inkscape:connector-curvature="0"
         id="path4346"
         d="m 32.231875,29.56 530.808125,0 0,372.78 -530.808125,0 0,-372.78 z" />
    </clipPath>
    <clipPath
       id="clipPath4354"
       clipPathUnits="userSpaceOnUse">
      <path
         inkscape:connector-curvature="0"
         id="path4356"
         d="m 32.231875,29.56 530.808125,0 0,372.78 -530.808125,0 0,-372.78 z" />
    </clipPath>
    <clipPath
       id="clipPath4386"
       clipPathUnits="userSpaceOnUse">
      <path
         inkscape:connector-curvature="0"
         id="path4388"
         d="m -184,-236 1472,0 0,1165 -1472,0 0,-1165 z" />
    </clipPath>
    <clipPath
       id="clipPath4408"
       clipPathUnits="userSpaceOnUse">
      <path
         inkscape:connector-curvature="0"
         id="path4410"
         d="m -184,-236 1472,0 0,1165 -1472,0 0,-1165 z" />
    </clipPath>
    <clipPath
       id="clipPath4454"
       clipPathUnits="userSpaceOnUse">
      <path
         inkscape:connector-curvature="0"
         id="path4456"
         d="m -184,-236 1472,0 0,1165 -1472,0 0,-1165 z" />
    </clipPath>
    <clipPath
       id="clipPath4476"
       clipPathUnits="userSpaceOnUse">
      <path
         inkscape:connector-curvature="0"
         id="path4478"
         d="m -184,-236 1472,0 0,1165 -1472,0 0,-1165 z" />
    </clipPath>
  </defs>
  <sodipodi:namedview
     id="base"
     pagecolor="#ffffff"
     bordercolor="#666666"
     borderopacity="1.0"
     inkscape:pageopacity="0.0"
     inkscape:pageshadow="2"
     inkscape:zoom="0.98994949"
     inkscape:cx="353.22542"
     inkscape:cy="346.51074"
     inkscape:document-units="px"
     inkscape:current-layer="layer1"
     showgrid="false"
     fit-margin-top="0"
     fit-margin-left="0"
     fit-margin-right="0"
     fit-margin-bottom="0"
     inkscape:window-width="959"
     inkscape:window-height="876"
     inkscape:window-x="1368"
     inkscape:window-y="51"
     inkscape:window-maximized="0" />
  <metadata
     id="metadata7">
    <rdf:RDF>
      <cc:Work
         rdf:about="">
        <dc:format>image/svg+xml</dc:format>
        <dc:type
           rdf:resource="http://purl.org/dc/dcmitype/StillImage" />
        <dc:title></dc:title>
      </cc:Work>
    </rdf:RDF>
  </metadata>
  <g
     inkscape:label="Layer 1"
     inkscape:groupmode="layer"
     id="layer1"
     transform="translate(35,-262.3622)">
    <path
       d="m -35,802.3622 720,0 0,-540 -720,0 0,540 z"
       style="fill:#ffffff;fill-opacity:1;fill-rule:nonzero;stroke:none"
       id="path4146"
       inkscape:connector-curvature="0" />
    <path
       d="m 5.2898438,765.4122 663.5101562,0 0,-465.975 -663.5101563,0 0,465.975 z"
       style="fill:#ffffff;fill-opacity:1;fill-rule:nonzero;stroke:none"
       id="path4148"
       inkscape:connector-curvature="0" />
    <g
       clip-path="url(#clipPath4154)"
       id="g4152"
       transform="matrix(1.25,0,0,-1.25,-35,802.3622)">
      <path
         inkscape:connector-curvature="0"
         id="path4158"
         style="fill:#ff0000;fill-opacity:1;fill-rule:nonzero;stroke:#000000;stroke-width:1;stroke-linecap:butt;stroke-linejoin:round;stroke-miterlimit:10;stroke-dasharray:none;stroke-opacity:1"
         d="m 179.06882,106.34123 c 0.59301,0 1.16182,0.23561 1.58114,0.65493 0.41932,0.41933 0.65493,0.98813 0.65493,1.58114 0,0.59301 -0.23561,1.16182 -0.65493,1.58114 -0.41932,0.41932 -0.98813,0.65493 -1.58114,0.65493 -0.59301,0 -1.16182,-0.23561 -1.58114,-0.65493 -0.41932,-0.41932 -0.65493,-0.98813 -0.65493,-1.58114 0,-0.59301 0.23561,-1.16181 0.65493,-1.58114 0.41932,-0.41932 0.98813,-0.65493 1.58114,-0.65493 z" />
    </g>
    <g
       clip-path="url(#clipPath4164)"
       id="g4162"
       transform="matrix(1.25,0,0,-1.25,-35,802.3622)">
      <path
         inkscape:connector-curvature="0"
         id="path4168"
         style="fill:#ff0000;fill-opacity:1;fill-rule:nonzero;stroke:#000000;stroke-width:1;stroke-linecap:butt;stroke-linejoin:round;stroke-miterlimit:10;stroke-dasharray:none;stroke-opacity:1"
         d="m 405.21093,125.02889 c 0.59301,0 1.16182,0.2356 1.58114,0.65493 0.41932,0.41932 0.65493,0.98812 0.65493,1.58113 0,0.59302 -0.23561,1.16182 -0.65493,1.58114 -0.41932,0.41933 -0.98813,0.65493 -1.58114,0.65493 -0.59301,0 -1.16181,-0.2356 -1.58114,-0.65493 -0.41932,-0.41932 -0.65493,-0.98812 -0.65493,-1.58114 0,-0.59301 0.23561,-1.16181 0.65493,-1.58113 0.41933,-0.41933 0.98813,-0.65493 1.58114,-0.65493 z" />
    </g>
    <g
       clip-path="url(#clipPath4174)"
       id="g4172"
       transform="matrix(1.25,0,0,-1.25,-35,802.3622)">
      <path
         inkscape:connector-curvature="0"
         id="path4178"
         style="fill:#ff0000;fill-opacity:1;fill-rule:nonzero;stroke:#000000;stroke-width:1;stroke-linecap:butt;stroke-linejoin:round;stroke-miterlimit:10;stroke-dasharray:none;stroke-opacity:1"
         d="m 179.37912,173.01825 c 0.59301,0 1.16181,0.23561 1.58114,0.65493 0.41932,0.41932 0.65492,0.98813 0.65492,1.58114 0,0.59301 -0.2356,1.16181 -0.65492,1.58114 -0.41933,0.41932 -0.98813,0.65493 -1.58114,0.65493 -0.59302,0 -1.16182,-0.23561 -1.58114,-0.65493 -0.41933,-0.41933 -0.65493,-0.98813 -0.65493,-1.58114 0,-0.59301 0.2356,-1.16182 0.65493,-1.58114 0.41932,-0.41932 0.98812,-0.65493 1.58114,-0.65493 z" />
    </g>
    <g
       clip-path="url(#clipPath4184)"
       id="g4182"
       transform="matrix(1.25,0,0,-1.25,-35,802.3622)">
      <path
         inkscape:connector-curvature="0"
         id="path4188"
         style="fill:#ff0000;fill-opacity:1;fill-rule:nonzero;stroke:#000000;stroke-width:1;stroke-linecap:butt;stroke-linejoin:round;stroke-miterlimit:10;stroke-dasharray:none;stroke-opacity:1"
         d="m 447.33709,170.46855 c 0.59301,0 1.16182,0.23561 1.58114,0.65493 0.41932,0.41933 0.65493,0.98813 0.65493,1.58114 0,0.59301 -0.23561,1.16182 -0.65493,1.58114 -0.41932,0.41932 -0.98813,0.65493 -1.58114,0.65493 -0.59301,0 -1.16181,-0.23561 -1.58114,-0.65493 -0.41932,-0.41932 -0.65493,-0.98813 -0.65493,-1.58114 0,-0.59301 0.23561,-1.16181 0.65493,-1.58114 0.41933,-0.41932 0.98813,-0.65493 1.58114,-0.65493 z" />
    </g>
    <g
       clip-path="url(#clipPath4194)"
       id="g4192"
       transform="matrix(1.25,0,0,-1.25,-35,802.3622)">
      <path
         inkscape:connector-curvature="0"
         id="path4198"
         style="fill:#ff0000;fill-opacity:1;fill-rule:nonzero;stroke:#000000;stroke-width:1;stroke-linecap:butt;stroke-linejoin:round;stroke-miterlimit:10;stroke-dasharray:none;stroke-opacity:1"
         d="m 165.5352,254.38073 c 0.59301,0 1.16181,0.23561 1.58113,0.65493 0.41933,0.41932 0.65493,0.98813 0.65493,1.58114 0,0.59301 -0.2356,1.16182 -0.65493,1.58114 -0.41932,0.41932 -0.98812,0.65493 -1.58113,0.65493 -0.59302,0 -1.16182,-0.23561 -1.58114,-0.65493 -0.41933,-0.41932 -0.65493,-0.98813 -0.65493,-1.58114 0,-0.59301 0.2356,-1.16182 0.65493,-1.58114 0.41932,-0.41932 0.98812,-0.65493 1.58114,-0.65493 z" />
    </g>
    <g
       clip-path="url(#clipPath4204)"
       id="g4202"
       transform="matrix(1.25,0,0,-1.25,-35,802.3622)">
      <path
         inkscape:connector-curvature="0"
         id="path4208"
         style="fill:#ff0000;fill-opacity:1;fill-rule:nonzero;stroke:#000000;stroke-width:1;stroke-linecap:butt;stroke-linejoin:round;stroke-miterlimit:10;stroke-dasharray:none;stroke-opacity:1"
         d="m 412.46089,262.63968 c 0.59301,0 1.16181,0.23561 1.58114,0.65493 0.41932,0.41932 0.65493,0.98813 0.65493,1.58114 0,0.59301 -0.23561,1.16181 -0.65493,1.58114 -0.41933,0.41932 -0.98813,0.65493 -1.58114,0.65493 -0.59301,0 -1.16182,-0.23561 -1.58114,-0.65493 -0.41932,-0.41933 -0.65493,-0.98813 -0.65493,-1.58114 0,-0.59301 0.23561,-1.16182 0.65493,-1.58114 0.41932,-0.41932 0.98813,-0.65493 1.58114,-0.65493 z" />
    </g>
    <g
       clip-path="url(#clipPath4214)"
       id="g4212"
       transform="matrix(1.25,0,0,-1.25,-35,802.3622)">
      <path
         inkscape:connector-curvature="0"
         id="path4218"
         style="fill:#ff0000;fill-opacity:1;fill-rule:nonzero;stroke:#000000;stroke-width:1;stroke-linecap:butt;stroke-linejoin:round;stroke-miterlimit:10;stroke-dasharray:none;stroke-opacity:1"
         d="m 191.93399,323.36839 c 0.59302,0 1.16182,0.23561 1.58114,0.65493 0.41933,0.41933 0.65493,0.98813 0.65493,1.58114 0,0.59301 -0.2356,1.16182 -0.65493,1.58114 -0.41932,0.41932 -0.98812,0.65493 -1.58114,0.65493 -0.59301,0 -1.16181,-0.23561 -1.58114,-0.65493 -0.41932,-0.41932 -0.65492,-0.98813 -0.65492,-1.58114 0,-0.59301 0.2356,-1.16181 0.65492,-1.58114 0.41933,-0.41932 0.98813,-0.65493 1.58114,-0.65493 z" />
    </g>
    <g
       clip-path="url(#clipPath4224)"
       id="g4222"
       transform="matrix(1.25,0,0,-1.25,-35,802.3622)">
      <path
         inkscape:connector-curvature="0"
         id="path4228"
         style="fill:#ff0000;fill-opacity:1;fill-rule:nonzero;stroke:#000000;stroke-width:1;stroke-linecap:butt;stroke-linejoin:round;stroke-miterlimit:10;stroke-dasharray:none;stroke-opacity:1"
         d="m 398.26912,355.68252 c 0.59301,0 1.16182,0.23561 1.58114,0.65493 0.41932,0.41932 0.65493,0.98812 0.65493,1.58114 0,0.59301 -0.23561,1.16181 -0.65493,1.58114 -0.41932,0.41932 -0.98813,0.65493 -1.58114,0.65493 -0.59301,0 -1.16181,-0.23561 -1.58114,-0.65493 -0.41932,-0.41933 -0.65493,-0.98813 -0.65493,-1.58114 0,-0.59302 0.23561,-1.16182 0.65493,-1.58114 0.41933,-0.41932 0.98813,-0.65493 1.58114,-0.65493 z" />
    </g>
    <g
       clip-path="url(#clipPath4234)"
       id="g4232"
       transform="matrix(1.25,0,0,-1.25,-35,802.3622)">
      <path
         inkscape:connector-curvature="0"
         id="path4238"
         style="fill:#ff0000;fill-opacity:1;fill-rule:nonzero;stroke:#000000;stroke-width:1;stroke-linecap:butt;stroke-linejoin:round;stroke-miterlimit:10;stroke-dasharray:none;stroke-opacity:1"
         d="m 166.75012,237.86791 c 0.59301,0 1.16181,0.23561 1.58114,0.65493 0.41932,0.41933 0.65493,0.98813 0.65493,1.58114 0,0.59301 -0.23561,1.16182 -0.65493,1.58114 -0.41933,0.41932 -0.98813,0.65493 -1.58114,0.65493 -0.59301,0 -1.16182,-0.23561 -1.58114,-0.65493 -0.41932,-0.41932 -0.65493,-0.98813 -0.65493,-1.58114 0,-0.59301 0.23561,-1.16181 0.65493,-1.58114 0.41932,-0.41932 0.98813,-0.65493 1.58114,-0.65493 z" />
    </g>
    <g
       clip-path="url(#clipPath4244)"
       id="g4242"
       transform="matrix(1.25,0,0,-1.25,-35,802.3622)">
      <path
         inkscape:connector-curvature="0"
         id="path4248"
         style="fill:#ff0000;fill-opacity:1;fill-rule:nonzero;stroke:#000000;stroke-width:1;stroke-linecap:butt;stroke-linejoin:round;stroke-miterlimit:10;stroke-dasharray:none;stroke-opacity:1"
         d="m 424.72246,201.30397 c 0.59301,0 1.16182,0.2356 1.58114,0.65493 0.41932,0.41932 0.65493,0.98812 0.65493,1.58114 0,0.59301 -0.23561,1.16181 -0.65493,1.58113 -0.41932,0.41933 -0.98813,0.65493 -1.58114,0.65493 -0.59301,0 -1.16182,-0.2356 -1.58114,-0.65493 -0.41932,-0.41932 -0.65493,-0.98812 -0.65493,-1.58113 0,-0.59302 0.23561,-1.16182 0.65493,-1.58114 0.41932,-0.41933 0.98813,-0.65493 1.58114,-0.65493 z" />
    </g>
    <g
       clip-path="url(#clipPath4254)"
       id="g4252"
       transform="matrix(1.25,0,0,-1.25,-35,802.3622)">
      <path
         inkscape:connector-curvature="0"
         id="path4258"
         style="fill:#ff0000;fill-opacity:1;fill-rule:nonzero;stroke:#000000;stroke-width:1;stroke-linecap:butt;stroke-linejoin:round;stroke-miterlimit:10;stroke-dasharray:none;stroke-opacity:1"
         d="m 174.73286,290.56126 c 0.59301,0 1.16182,0.23561 1.58114,0.65493 0.41932,0.41933 0.65493,0.98813 0.65493,1.58114 0,0.59301 -0.23561,1.16182 -0.65493,1.58114 -0.41932,0.41932 -0.98813,0.65493 -1.58114,0.65493 -0.59301,0 -1.16181,-0.23561 -1.58114,-0.65493 -0.41932,-0.41932 -0.65493,-0.98813 -0.65493,-1.58114 0,-0.59301 0.23561,-1.16181 0.65493,-1.58114 0.41933,-0.41932 0.98813,-0.65493 1.58114,-0.65493 z" />
    </g>
    <g
       clip-path="url(#clipPath4264)"
       id="g4262"
       transform="matrix(1.25,0,0,-1.25,-35,802.3622)">
      <path
         inkscape:connector-curvature="0"
         id="path4268"
         style="fill:#ff0000;fill-opacity:1;fill-rule:nonzero;stroke:#000000;stroke-width:1;stroke-linecap:butt;stroke-linejoin:round;stroke-miterlimit:10;stroke-dasharray:none;stroke-opacity:1"
         d="m 432.26744,297.91004 c 0.59301,0 1.16181,0.23561 1.58114,0.65493 0.41932,0.41932 0.65493,0.98812 0.65493,1.58114 0,0.59301 -0.23561,1.16181 -0.65493,1.58114 -0.41933,0.41932 -0.98813,0.65492 -1.58114,0.65492 -0.59301,0 -1.16182,-0.2356 -1.58114,-0.65492 -0.41932,-0.41933 -0.65493,-0.98813 -0.65493,-1.58114 0,-0.59302 0.23561,-1.16182 0.65493,-1.58114 0.41932,-0.41932 0.98813,-0.65493 1.58114,-0.65493 z" />
    </g>
    <g
       clip-path="url(#clipPath4274)"
       id="g4272"
       transform="matrix(1.25,0,0,-1.25,-35,802.3622)">
      <path
         inkscape:connector-curvature="0"
         id="path4278"
         style="fill:#ff0000;fill-opacity:1;fill-rule:nonzero;stroke:#000000;stroke-width:1;stroke-linecap:butt;stroke-linejoin:round;stroke-miterlimit:10;stroke-dasharray:none;stroke-opacity:1"
         d="m 186.77991,107.51354 c 0.59301,0 1.16182,0.23561 1.58114,0.65493 0.41932,0.41932 0.65493,0.98813 0.65493,1.58114 0,0.59301 -0.23561,1.16181 -0.65493,1.58114 -0.41932,0.41932 -0.98813,0.65493 -1.58114,0.65493 -0.59301,0 -1.16182,-0.23561 -1.58114,-0.65493 -0.41932,-0.41933 -0.65493,-0.98813 -0.65493,-1.58114 0,-0.59301 0.23561,-1.16182 0.65493,-1.58114 0.41932,-0.41932 0.98813,-0.65493 1.58114,-0.65493 z" />
    </g>
    <g
       clip-path="url(#clipPath4284)"
       id="g4282"
       transform="matrix(1.25,0,0,-1.25,-35,802.3622)">
      <path
         inkscape:connector-curvature="0"
         id="path4288"
         style="fill:#ff0000;fill-opacity:1;fill-rule:nonzero;stroke:#000000;stroke-width:1;stroke-linecap:butt;stroke-linejoin:round;stroke-miterlimit:10;stroke-dasharray:none;stroke-opacity:1"
         d="m 402.45507,85.910083 c 0.59301,0 1.16182,0.235607 1.58114,0.65493 0.41932,0.419322 0.65493,0.988126 0.65493,1.581138 0,0.593013 -0.23561,1.161816 -0.65493,1.581139 -0.41932,0.419323 -0.98813,0.654929 -1.58114,0.654929 -0.59301,0 -1.16182,-0.235606 -1.58114,-0.654929 -0.41932,-0.419323 -0.65493,-0.988126 -0.65493,-1.581139 0,-0.593012 0.23561,-1.161816 0.65493,-1.581138 0.41932,-0.419323 0.98813,-0.65493 1.58114,-0.65493 z" />
    </g>
    <g
       clip-path="url(#clipPath4294)"
       id="g4292"
       transform="matrix(1.25,0,0,-1.25,-35,802.3622)">
      <path
         inkscape:connector-curvature="0"
         id="path4298"
         style="fill:#bbbbbb;fill-opacity:1;fill-rule:nonzero;stroke:#bbbbbb;stroke-width:0.1;stroke-linecap:butt;stroke-linejoin:miter;stroke-miterlimit:10;stroke-dasharray:none;stroke-opacity:1"
         d="m 400.3854,127.26495 -13.77976,-4.60389 -0.51511,2.94315 -202.12259,-17.44736 -0.14718,0.8409 202.1226,17.44736 -0.5151,2.94315 14.95714,-2.12331 z" />
    </g>
    <g
       clip-path="url(#clipPath4304)"
       id="g4302"
       transform="matrix(1.25,0,0,-1.25,-35,802.3622)">
      <path
         inkscape:connector-curvature="0"
         id="path4308"
         style="fill:#bbbbbb;fill-opacity:1;fill-rule:nonzero;stroke:#bbbbbb;stroke-width:0.1;stroke-linecap:butt;stroke-linejoin:miter;stroke-miterlimit:10;stroke-dasharray:none;stroke-opacity:1"
         d="m 442.51156,172.70462 -14.54297,-3.24569 0.0593,2.965 -243.83176,2.40682 0.017,0.84714 243.83176,-2.40682 0.0593,2.96501 14.40734,-3.53146 z" />
    </g>
    <g
       clip-path="url(#clipPath4314)"
       id="g4312"
       transform="matrix(1.25,0,0,-1.25,-35,802.3622)">
      <path
         inkscape:connector-curvature="0"
         id="path4318"
         style="fill:#bbbbbb;fill-opacity:1;fill-rule:nonzero;stroke:#bbbbbb;stroke-width:0.1;stroke-linecap:butt;stroke-linejoin:miter;stroke-miterlimit:10;stroke-dasharray:none;stroke-opacity:1"
         d="m 407.63536,264.87575 -14.21996,-3.88803 -0.20902,2.96166 -222.8158,-7.75567 -0.0597,0.84618 222.8158,7.75568 -0.20901,2.96166 14.69771,-2.88148 z" />
    </g>
    <g
       clip-path="url(#clipPath4324)"
       id="g4322"
       transform="matrix(1.25,0,0,-1.25,-35,802.3622)">
      <path
         inkscape:connector-curvature="0"
         id="path4328"
         style="fill:#bbbbbb;fill-opacity:1;fill-rule:nonzero;stroke:#bbbbbb;stroke-width:0.1;stroke-linecap:butt;stroke-linejoin:miter;stroke-miterlimit:10;stroke-dasharray:none;stroke-opacity:1"
         d="m 393.44359,357.91859 -12.99678,-5.61571 -0.96181,2.88733 -182.58808,-29.99823 -0.2748,0.82496 182.58808,29.99823 -0.96182,2.88734 15.19521,-0.98392 z" />
    </g>
    <g
       clip-path="url(#clipPath4334)"
       id="g4332"
       transform="matrix(1.25,0,0,-1.25,-35,802.3622)">
      <path
         inkscape:connector-curvature="0"
         id="path4338"
         style="fill:#bbbbbb;fill-opacity:1;fill-rule:nonzero;stroke:#bbbbbb;stroke-width:0.1;stroke-linecap:butt;stroke-linejoin:miter;stroke-miterlimit:10;stroke-dasharray:none;stroke-opacity:1"
         d="m 419.89693,203.54004 -15.15873,-1.23056 0.86644,2.90219 -234.15277,34.47771 0.24755,0.8292 234.15277,-34.47771 0.86643,2.90219 13.17831,-5.40302 z" />
    </g>
    <g
       clip-path="url(#clipPath4344)"
       id="g4342"
       transform="matrix(1.25,0,0,-1.25,-35,802.3622)">
      <path
         inkscape:connector-curvature="0"
         id="path4348"
         style="fill:#bbbbbb;fill-opacity:1;fill-rule:nonzero;stroke:#bbbbbb;stroke-width:0.1;stroke-linecap:butt;stroke-linejoin:miter;stroke-miterlimit:10;stroke-dasharray:none;stroke-opacity:1"
         d="m 427.44191,300.14611 -14.26018,-3.81469 -0.17808,2.96266 -233.41982,-6.91998 -0.0509,0.84647 233.41982,6.91998 -0.17808,2.96266 14.66722,-2.9571 z" />
    </g>
    <g
       clip-path="url(#clipPath4354)"
       id="g4352"
       transform="matrix(1.25,0,0,-1.25,-35,802.3622)">
      <path
         inkscape:connector-curvature="0"
         id="path4358"
         style="fill:#bbbbbb;fill-opacity:1;fill-rule:nonzero;stroke:#bbbbbb;stroke-width:0.1;stroke-linecap:butt;stroke-linejoin:miter;stroke-miterlimit:10;stroke-dasharray:none;stroke-opacity:1"
         d="m 397.62954,88.146151 -15.03047,-1.850398 0.62353,2.932785 -191.70624,20.102102 0.17815,0.83794 191.70624,-20.102104 0.62353,2.932785 13.60526,-4.85311 z" />
    </g>
    <path
       inkscape:connector-curvature="0"
       id="path4362"
       style="fill:none;stroke:#000000;stroke-width:1.25;stroke-linecap:square;stroke-linejoin:miter;stroke-miterlimit:10;stroke-dasharray:none;stroke-opacity:1"
       d="m 5.2898438,299.4372 663.5101562,0" />
    <path
       inkscape:connector-curvature="0"
       id="path4364"
       style="fill:none;stroke:#000000;stroke-width:1.25;stroke-linecap:square;stroke-linejoin:miter;stroke-miterlimit:10;stroke-dasharray:none;stroke-opacity:1"
       d="m 668.8,765.4122 0,-465.975" />
    <path
       inkscape:connector-curvature="0"
       id="path4366"
       style="fill:none;stroke:#000000;stroke-width:1.25;stroke-linecap:square;stroke-linejoin:miter;stroke-miterlimit:10;stroke-dasharray:none;stroke-opacity:1"
       d="m 5.2898438,765.4122 663.5101562,0" />
    <path
       inkscape:connector-curvature="0"
       id="path4368"
       style="fill:none;stroke:#000000;stroke-width:1.25;stroke-linecap:square;stroke-linejoin:miter;stroke-miterlimit:10;stroke-dasharray:none;stroke-opacity:1"
       d="m 5.2898438,765.4122 0,-465.975" />
    <path
       inkscape:connector-curvature="0"
       id="path4370"
       style="fill:#000000;fill-opacity:1;fill-rule:nonzero;stroke:#000000;stroke-width:0.625;stroke-linecap:butt;stroke-linejoin:round;stroke-miterlimit:10;stroke-dasharray:none;stroke-opacity:1"
       d="m 35.449396,765.4122 0,-5" />
    <path
       inkscape:connector-curvature="0"
       id="path4372"
       style="fill:#000000;fill-opacity:1;fill-rule:nonzero;stroke:#000000;stroke-width:0.625;stroke-linecap:butt;stroke-linejoin:round;stroke-miterlimit:10;stroke-dasharray:none;stroke-opacity:1"
       d="m 35.449396,299.4372 0,5" />
    <g
       transform="matrix(1.25,0,0,-1.25,25.927913,781.81845)"
       id="g4374">
      <text
         id="text4376"
         style="font-variant:normal;font-weight:normal;font-size:12px;font-family:BitstreamVeraSans;-inkscape-font-specification:BitstreamVeraSans-Roman;writing-mode:lr-tb;fill:#000000;fill-opacity:1;fill-rule:nonzero;stroke:none"
         transform="matrix(1,0,0,-1,10.054688,0)">
        <tspan
           id="tspan4378"
           y="0"
           x="0">2</tspan>
      </text>
      <g
         transform="scale(0.012,0.012)"
         id="g4380">
        <g
           id="g4382">
          <g
             clip-path="url(#clipPath4386)"
             id="g4384">
            <path
               inkscape:connector-curvature="0"
               id="path4390"
               style="fill:#000000;fill-opacity:1;fill-rule:nonzero;stroke:none"
               d="m 106,355 626,0 0,-83 -626,0 0,83" />
          </g>
        </g>
      </g>
    </g>
    <path
       inkscape:connector-curvature="0"
       id="path4392"
       style="fill:#000000;fill-opacity:1;fill-rule:nonzero;stroke:#000000;stroke-width:0.625;stroke-linecap:butt;stroke-linejoin:round;stroke-miterlimit:10;stroke-dasharray:none;stroke-opacity:1"
       d="m 186.24716,765.4122 0,-5" />
    <path
       inkscape:connector-curvature="0"
       id="path4394"
       style="fill:#000000;fill-opacity:1;fill-rule:nonzero;stroke:#000000;stroke-width:0.625;stroke-linecap:butt;stroke-linejoin:round;stroke-miterlimit:10;stroke-dasharray:none;stroke-opacity:1"
       d="m 186.24716,299.4372 0,5" />
    <g
       transform="matrix(1.25,0,0,-1.25,176.66707,781.81845)"
       id="g4396">
      <text
         id="text4398"
         style="font-variant:normal;font-weight:normal;font-size:12px;font-family:BitstreamVeraSans;-inkscape-font-specification:BitstreamVeraSans-Roman;writing-mode:lr-tb;fill:#000000;fill-opacity:1;fill-rule:nonzero;stroke:none"
         transform="matrix(1,0,0,-1,10.054688,0)">
        <tspan
           id="tspan4400"
           y="0"
           x="0">1</tspan>
      </text>
      <g
         transform="scale(0.012,0.012)"
         id="g4402">
        <g
           id="g4404">
          <g
             clip-path="url(#clipPath4408)"
             id="g4406">
            <path
               inkscape:connector-curvature="0"
               id="path4412"
               style="fill:#000000;fill-opacity:1;fill-rule:nonzero;stroke:none"
               d="m 106,355 626,0 0,-83 -626,0 0,83" />
          </g>
        </g>
      </g>
    </g>
    <path
       inkscape:connector-curvature="0"
       id="path4414"
       style="fill:#000000;fill-opacity:1;fill-rule:nonzero;stroke:#000000;stroke-width:0.625;stroke-linecap:butt;stroke-linejoin:round;stroke-miterlimit:10;stroke-dasharray:none;stroke-opacity:1"
       d="m 337.04493,765.4122 0,-5" />
    <path
       inkscape:connector-curvature="0"
       id="path4416"
       style="fill:#000000;fill-opacity:1;fill-rule:nonzero;stroke:#000000;stroke-width:0.625;stroke-linecap:butt;stroke-linejoin:round;stroke-miterlimit:10;stroke-dasharray:none;stroke-opacity:1"
       d="m 337.04493,299.4372 0,5" />
    <text
       id="text4418"
       style="font-variant:normal;font-weight:normal;font-size:15px;font-family:BitstreamVeraSans;-inkscape-font-specification:BitstreamVeraSans-Roman;writing-mode:lr-tb;fill:#000000;fill-opacity:1;fill-rule:nonzero;stroke:none"
       x="333.26563"
       y="781.81842">
      <tspan
         id="tspan4420"
         y="781.81842"
         x="333.26563">0</tspan>
    </text>
    <path
       inkscape:connector-curvature="0"
       id="path4422"
       style="fill:#000000;fill-opacity:1;fill-rule:nonzero;stroke:#000000;stroke-width:0.625;stroke-linecap:butt;stroke-linejoin:round;stroke-miterlimit:10;stroke-dasharray:none;stroke-opacity:1"
       d="m 487.84269,765.4122 0,-5" />
    <path
       inkscape:connector-curvature="0"
       id="path4424"
       style="fill:#000000;fill-opacity:1;fill-rule:nonzero;stroke:#000000;stroke-width:0.625;stroke-linecap:butt;stroke-linejoin:round;stroke-miterlimit:10;stroke-dasharray:none;stroke-opacity:1"
       d="m 487.84269,299.4372 0,5" />
    <text
       id="text4426"
       style="font-variant:normal;font-weight:normal;font-size:15px;font-family:BitstreamVeraSans;-inkscape-font-specification:BitstreamVeraSans-Roman;writing-mode:lr-tb;fill:#000000;fill-opacity:1;fill-rule:nonzero;stroke:none"
       x="484.58096"
       y="781.81842">
      <tspan
         id="tspan4428"
         y="781.81842"
         x="484.58096">1</tspan>
    </text>
    <path
       inkscape:connector-curvature="0"
       id="path4430"
       style="fill:#000000;fill-opacity:1;fill-rule:nonzero;stroke:#000000;stroke-width:0.625;stroke-linecap:butt;stroke-linejoin:round;stroke-miterlimit:10;stroke-dasharray:none;stroke-opacity:1"
       d="m 638.64045,765.4122 0,-5" />
    <path
       inkscape:connector-curvature="0"
       id="path4432"
       style="fill:#000000;fill-opacity:1;fill-rule:nonzero;stroke:#000000;stroke-width:0.625;stroke-linecap:butt;stroke-linejoin:round;stroke-miterlimit:10;stroke-dasharray:none;stroke-opacity:1"
       d="m 638.64045,299.4372 0,5" />
    <text
       id="text4434"
       style="font-variant:normal;font-weight:normal;font-size:15px;font-family:BitstreamVeraSans;-inkscape-font-specification:BitstreamVeraSans-Roman;writing-mode:lr-tb;fill:#000000;fill-opacity:1;fill-rule:nonzero;stroke:none"
       x="635.16388"
       y="781.81842">
      <tspan
         id="tspan4436"
         y="781.81842"
         x="635.16388">2</tspan>
    </text>
    <path
       inkscape:connector-curvature="0"
       id="path4438"
       style="fill:#000000;fill-opacity:1;fill-rule:nonzero;stroke:#000000;stroke-width:0.625;stroke-linecap:butt;stroke-linejoin:round;stroke-miterlimit:10;stroke-dasharray:none;stroke-opacity:1"
       d="m 5.2898438,744.23152 5.0000002,0" />
    <path
       inkscape:connector-curvature="0"
       id="path4440"
       style="fill:#000000;fill-opacity:1;fill-rule:nonzero;stroke:#000000;stroke-width:0.625;stroke-linecap:butt;stroke-linejoin:round;stroke-miterlimit:10;stroke-dasharray:none;stroke-opacity:1"
       d="m 668.8,744.23152 -5,0" />
    <g
       transform="matrix(1.25,0,0,-1.25,-18.753125,748.37214)"
       id="g4442">
      <text
         id="text4444"
         style="font-variant:normal;font-weight:normal;font-size:12px;font-family:BitstreamVeraSans;-inkscape-font-specification:BitstreamVeraSans-Roman;writing-mode:lr-tb;fill:#000000;fill-opacity:1;fill-rule:nonzero;stroke:none"
         transform="matrix(1,0,0,-1,10.054688,0)">
        <tspan
           id="tspan4446"
           y="0"
           x="0">2</tspan>
      </text>
      <g
         transform="scale(0.012,0.012)"
         id="g4448">
        <g
           id="g4450">
          <g
             clip-path="url(#clipPath4454)"
             id="g4452">
            <path
               inkscape:connector-curvature="0"
               id="path4458"
               style="fill:#000000;fill-opacity:1;fill-rule:nonzero;stroke:none"
               d="m 106,355 626,0 0,-83 -626,0 0,83" />
          </g>
        </g>
      </g>
    </g>
    <path
       inkscape:connector-curvature="0"
       id="path4460"
       style="fill:#000000;fill-opacity:1;fill-rule:nonzero;stroke:#000000;stroke-width:0.625;stroke-linecap:butt;stroke-linejoin:round;stroke-miterlimit:10;stroke-dasharray:none;stroke-opacity:1"
       d="m 5.2898438,638.32811 5.0000002,0" />
    <path
       inkscape:connector-curvature="0"
       id="path4462"
       style="fill:#000000;fill-opacity:1;fill-rule:nonzero;stroke:#000000;stroke-width:0.625;stroke-linecap:butt;stroke-linejoin:round;stroke-miterlimit:10;stroke-dasharray:none;stroke-opacity:1"
       d="m 668.8,638.32811 -5,0" />
    <g
       transform="matrix(1.25,0,0,-1.25,-18.870312,642.46874)"
       id="g4464">
      <text
         id="text4466"
         style="font-variant:normal;font-weight:normal;font-size:12px;font-family:BitstreamVeraSans;-inkscape-font-specification:BitstreamVeraSans-Roman;writing-mode:lr-tb;fill:#000000;fill-opacity:1;fill-rule:nonzero;stroke:none"
         transform="matrix(1,0,0,-1,10.054688,0)">
        <tspan
           id="tspan4468"
           y="0"
           x="0">1</tspan>
      </text>
      <g
         transform="scale(0.012,0.012)"
         id="g4470">
        <g
           id="g4472">
          <g
             clip-path="url(#clipPath4476)"
             id="g4474">
            <path
               inkscape:connector-curvature="0"
               id="path4480"
               style="fill:#000000;fill-opacity:1;fill-rule:nonzero;stroke:none"
               d="m 106,355 626,0 0,-83 -626,0 0,83" />
          </g>
        </g>
      </g>
    </g>
    <path
       inkscape:connector-curvature="0"
       id="path4482"
       style="fill:#000000;fill-opacity:1;fill-rule:nonzero;stroke:#000000;stroke-width:0.625;stroke-linecap:butt;stroke-linejoin:round;stroke-miterlimit:10;stroke-dasharray:none;stroke-opacity:1"
       d="m 5.2898438,532.4247 5.0000002,0" />
    <path
       inkscape:connector-curvature="0"
       id="path4484"
       style="fill:#000000;fill-opacity:1;fill-rule:nonzero;stroke:#000000;stroke-width:0.625;stroke-linecap:butt;stroke-linejoin:round;stroke-miterlimit:10;stroke-dasharray:none;stroke-opacity:1"
       d="m 668.8,532.4247 -5,0" />
    <text
       id="text4486"
       style="font-variant:normal;font-weight:normal;font-size:15px;font-family:BitstreamVeraSans;-inkscape-font-specification:BitstreamVeraSans-Roman;writing-mode:lr-tb;fill:#000000;fill-opacity:1;fill-rule:nonzero;stroke:none"
       x="-7.2687502"
       y="536.56531">
      <tspan
         id="tspan4488"
         y="536.56531"
         x="-7.2687502">0</tspan>
    </text>
    <path
       inkscape:connector-curvature="0"
       id="path4490"
       style="fill:#000000;fill-opacity:1;fill-rule:nonzero;stroke:#000000;stroke-width:0.625;stroke-linecap:butt;stroke-linejoin:round;stroke-miterlimit:10;stroke-dasharray:none;stroke-opacity:1"
       d="m 5.2898438,426.52129 5.0000002,0" />
    <path
       inkscape:connector-curvature="0"
       id="path4492"
       style="fill:#000000;fill-opacity:1;fill-rule:nonzero;stroke:#000000;stroke-width:0.625;stroke-linecap:butt;stroke-linejoin:round;stroke-miterlimit:10;stroke-dasharray:none;stroke-opacity:1"
       d="m 668.8,426.52129 -5,0" />
    <text
       id="text4494"
       style="font-variant:normal;font-weight:normal;font-size:15px;font-family:BitstreamVeraSans;-inkscape-font-specification:BitstreamVeraSans-Roman;writing-mode:lr-tb;fill:#000000;fill-opacity:1;fill-rule:nonzero;stroke:none"
       x="-6.2335939"
       y="430.6619">
      <tspan
         id="tspan4496"
         y="430.6619"
         x="-6.2335939">1</tspan>
    </text>
    <path
       inkscape:connector-curvature="0"
       id="path4498"
       style="fill:#000000;fill-opacity:1;fill-rule:nonzero;stroke:#000000;stroke-width:0.625;stroke-linecap:butt;stroke-linejoin:round;stroke-miterlimit:10;stroke-dasharray:none;stroke-opacity:1"
       d="m 5.2898438,320.61789 5.0000002,0" />
    <path
       inkscape:connector-curvature="0"
       id="path4500"
       style="fill:#000000;fill-opacity:1;fill-rule:nonzero;stroke:#000000;stroke-width:0.625;stroke-linecap:butt;stroke-linejoin:round;stroke-miterlimit:10;stroke-dasharray:none;stroke-opacity:1"
       d="m 668.8,320.61789 -5,0" />
    <text
       id="text4502"
       style="font-variant:normal;font-weight:normal;font-size:15px;font-family:BitstreamVeraSans;-inkscape-font-specification:BitstreamVeraSans-Roman;writing-mode:lr-tb;fill:#000000;fill-opacity:1;fill-rule:nonzero;stroke:none"
       x="-6.6632814"
       y="324.75851">
      <tspan
         id="tspan4504"
         y="324.75851"
         x="-6.6632814">2</tspan>
    </text>
    <text
       id="text4506"
       style="font-variant:normal;font-weight:normal;font-size:21.60000038px;font-family:BitstreamVeraSans;-inkscape-font-specification:BitstreamVeraSans-Roman;writing-mode:lr-tb;fill:#000000;fill-opacity:1;fill-rule:nonzero;stroke:none"
       x="93.007896"
       y="677.7265">
      <tspan
         id="tspan4508"
         sodipodi:role="line"
         y="677.7265"
         x="93.007896 106.7239 118.6039 132.29829 149.9671 163.2511 169.25591">Schweiz</tspan>
    </text>
    <text
       id="text4510"
       style="font-variant:normal;font-weight:normal;font-size:21.60000038px;font-family:BitstreamVeraSans;-inkscape-font-specification:BitstreamVeraSans-Roman;writing-mode:lr-tb;fill:#000000;fill-opacity:1;fill-rule:nonzero;stroke:none"
       x="480.26367"
       y="646.36694">
      <tspan
         id="tspan4512"
         sodipodi:role="line"
         y="646.36694"
         x="480.26367 492.68365 501.56125 514.80206 528.49646 541.00287 554.28687">Franken</tspan>
    </text>
    <text
       id="text4514"
       style="font-variant:normal;font-weight:normal;font-size:21.60000038px;font-family:BitstreamVeraSans;-inkscape-font-specification:BitstreamVeraSans-Roman;writing-mode:lr-tb;fill:#000000;fill-opacity:1;fill-rule:nonzero;stroke:none"
       x="47.204365"
       y="590.38025">
      <tspan
         id="tspan4516"
         sodipodi:role="line"
         y="590.38025"
         x="47.204365 63.836365 77.120369 90.814766 99.281967 110.53556 122.41557 136.10997 142.11476 155.35556 169.04996">Deutschland</tspan>
    </text>
    <text
       id="text4518"
       style="font-variant:normal;font-weight:normal;font-size:21.60000038px;font-family:BitstreamVeraSans;-inkscape-font-specification:BitstreamVeraSans-Roman;writing-mode:lr-tb;fill:#000000;fill-opacity:1;fill-rule:nonzero;stroke:none"
       x="532.92139"
       y="589.56738">
      <tspan
         id="tspan4520"
         sodipodi:role="line"
         y="589.56738"
         x="532.92139 546.57257 560.26697 569.14453">Euro</tspan>
    </text>
    <text
       id="text4522"
       style="font-variant:normal;font-weight:normal;font-size:21.60000038px;font-family:BitstreamVeraSans;-inkscape-font-specification:BitstreamVeraSans-Roman;writing-mode:lr-tb;fill:#000000;fill-opacity:1;fill-rule:nonzero;stroke:none"
       x="14.926807"
       y="474.67715">
      <tspan
         id="tspan4524"
         sodipodi:role="line"
         y="474.67715"
         x="14.926807 31.666809 40.544407 53.763607 65.017212 76.270805 89.986809 98.864403 104.86921 113.3364 126.57721 140.27161 153.966 159.97081 173.25481">Grossbritannien</tspan>
    </text>
    <text
       id="text4526"
       style="font-variant:normal;font-weight:normal;font-size:21.60000038px;font-family:BitstreamVeraSans;-inkscape-font-specification:BitstreamVeraSans-Roman;writing-mode:lr-tb;fill:#000000;fill-opacity:1;fill-rule:nonzero;stroke:none"
       x="489.32611"
       y="477.74799">
      <tspan
         id="tspan4528"
         sodipodi:role="line"
         y="477.74799"
         x="489.32611 503.04211 511.91971 517.9245 526.39172 532.39648 543.65009 555.53009 569.22449 582.50848 593.30853 606.33331 613.93652 627.63092 641.32532">britische_Pfund</tspan>
    </text>
    <text
       id="text4530"
       style="font-variant:normal;font-weight:normal;font-size:21.60000038px;font-family:BitstreamVeraSans;-inkscape-font-specification:BitstreamVeraSans-Roman;writing-mode:lr-tb;fill:#000000;fill-opacity:1;fill-rule:nonzero;stroke:none"
       x="136.71436"
       y="400.44257">
      <tspan
         id="tspan4532"
         sodipodi:role="line"
         y="400.44257"
         x="136.71436 143.08636 156.32716 170.04317 183.28397">Japan</tspan>
    </text>
    <text
       id="text4534"
       style="font-variant:normal;font-weight:normal;font-size:21.60000038px;font-family:BitstreamVeraSans;-inkscape-font-specification:BitstreamVeraSans-Roman;writing-mode:lr-tb;fill:#000000;fill-opacity:1;fill-rule:nonzero;stroke:none"
       x="471.5864"
       y="358.0499">
      <tspan
         id="tspan4536"
         sodipodi:role="line"
         y="358.0499"
         x="471.5864 484.784 498.06799">Yen</tspan>
    </text>
    <text
       id="text4538"
       style="font-variant:normal;font-weight:normal;font-size:21.60000038px;font-family:BitstreamVeraSans;-inkscape-font-specification:BitstreamVeraSans-Roman;writing-mode:lr-tb;fill:#000000;fill-opacity:1;fill-rule:nonzero;stroke:none"
       x="69.992332"
       y="509.31815">
      <tspan
         id="tspan4540"
         sodipodi:role="line"
         y="509.31815"
         x="69.992332 85.004333 98.698738 109.95234 121.20593 127.21074 140.45154 154.14594">Russland</tspan>
    </text>
    <text
       id="text4542"
       style="font-variant:normal;font-weight:normal;font-size:21.60000038px;font-family:BitstreamVeraSans;-inkscape-font-specification:BitstreamVeraSans-Roman;writing-mode:lr-tb;fill:#000000;fill-opacity:1;fill-rule:nonzero;stroke:none"
       x="504.65308"
       y="551.02307">
      <tspan
         id="tspan4544"
         sodipodi:role="line"
         y="551.02307"
         x="504.65308 519.6651 533.3595 547.0755 560.3595">Rubel</tspan>
    </text>
    <text
       id="text4546"
       style="font-variant:normal;font-weight:normal;font-size:21.60000038px;font-family:BitstreamVeraSans;-inkscape-font-specification:BitstreamVeraSans-Roman;writing-mode:lr-tb;fill:#000000;fill-opacity:1;fill-rule:nonzero;stroke:none"
       x="132.02936"
       y="443.45148">
      <tspan
         id="tspan4548"
         sodipodi:role="line"
         y="443.45148"
         x="132.02936 147.84056 161.55656">USA</tspan>
    </text>
    <text
       id="text4550"
       style="font-variant:normal;font-weight:normal;font-size:21.60000038px;font-family:BitstreamVeraSans;-inkscape-font-specification:BitstreamVeraSans-Roman;writing-mode:lr-tb;fill:#000000;fill-opacity:1;fill-rule:nonzero;stroke:none"
       x="514.08429"
       y="434.2655">
      <tspan
         id="tspan4552"
         sodipodi:role="line"
         y="434.2655"
         x="514.08429 529.89551 543.61151 551.40912 568.04108 581.26031 587.26508 593.2699 606.51068">US-Dollar</tspan>
    </text>
    <text
       id="text4554"
       style="font-variant:normal;font-weight:normal;font-size:21.60000038px;font-family:BitstreamVeraSans;-inkscape-font-specification:BitstreamVeraSans-Roman;writing-mode:lr-tb;fill:#000000;fill-opacity:1;fill-rule:nonzero;stroke:none"
       x="111.31864"
       y="656.26111">
      <tspan
         id="tspan4556"
         sodipodi:role="line"
         y="656.26111"
         x="111.31864 125.48824 134.36584 147.58504 160.82584 169.29305 175.29784 188.58183">Kroatien</tspan>
    </text>
    <text
       id="text4558"
       style="font-variant:normal;font-weight:normal;font-size:21.60000038px;font-family:BitstreamVeraSans;-inkscape-font-specification:BitstreamVeraSans-Roman;writing-mode:lr-tb;fill:#000000;fill-opacity:1;fill-rule:nonzero;stroke:none"
       x="476.81885"
       y="695.26544">
      <tspan
         id="tspan4560"
         sodipodi:role="line"
         y="695.26544"
         x="476.81885 490.98843 504.68283 518.37726">Kuna</tspan>
    </text>
    <g
       transform="matrix(1.25,0,0,-1.25,213.29492,293.1872)"
       id="g4562">
      <text
         id="text4564"
         style="font-variant:normal;font-weight:normal;font-size:14.39999962px;font-family:Cmmi10;-inkscape-font-specification:Cmmi10;writing-mode:lr-tb;fill:#000000;fill-opacity:1;fill-rule:nonzero;stroke:none"
         transform="matrix(1,0,0,-1,0,0.703125)">
        <tspan
           id="tspan4566"
           sodipodi:role="line"
           y="0"
           x="0 9.2400665 19.513062 34.096218 42.486065 47.439861 54.171413 62.399639 69.995461 74.281731 79.235527 85.967079 90.920876 97.610268 104.10291 112.33114 120.96691">PCAVisualisierung</tspan>
      </text>
      <text
         id="text4568"
         style="font-variant:normal;font-weight:normal;font-size:14.39999962px;font-family:Cmr10;-inkscape-font-specification:Cmr10;writing-mode:lr-tb;fill:#000000;fill-opacity:1;fill-rule:nonzero;stroke:none"
         transform="matrix(1,0,0,-1,130.35876,0.703125)">
        <tspan
           id="tspan4570"
           y="0"
           x="0">:</tspan>
      </text>
      <text
         id="text4572"
         style="font-variant:normal;font-weight:normal;font-size:14.39999962px;font-family:Cmmi10;-inkscape-font-specification:Cmmi10;writing-mode:lr-tb;fill:#000000;fill-opacity:1;fill-rule:nonzero;stroke:none"
         transform="matrix(1,0,0,-1,138.25386,0.703125)">
        <tspan
           id="tspan4574"
           y="0"
           x="0">W</tspan>
      </text>
      <text
         id="text4576"
         style="font-variant:normal;font-weight:normal;font-size:14.39999962px;font-family:Cmr10;-inkscape-font-specification:Cmr10;writing-mode:lr-tb;fill:#000000;fill-opacity:1;fill-rule:nonzero;stroke:none"
         transform="matrix(1,0,0,-1,152.38329,0.7375)">
        <tspan
           id="tspan4578"
           y="0"
           x="0">¨</tspan>
      </text>
      <text
         id="text4580"
         style="font-variant:normal;font-weight:normal;font-size:14.39999962px;font-family:Cmmi10;-inkscape-font-specification:Cmmi10;writing-mode:lr-tb;fill:#000000;fill-opacity:1;fill-rule:nonzero;stroke:none"
         transform="matrix(1,0,0,-1,151.83641,0.703125)">
        <tspan
           id="tspan4582"
           sodipodi:role="line"
           y="0"
           x="0 7.5958252 15.887299 22.379944 30.60817 39.243942">ahrung</tspan>
      </text>
    </g>
  </g>
</svg>
